<mxfile host="65bd71144e">
    <diagram id="e7DOmgXEsYM6bQBNdlwq" name="Page-1">
        <mxGraphModel dx="1238" dy="725" grid="1" gridSize="10" guides="1" tooltips="1" connect="1" arrows="1" fold="1" page="1" pageScale="1" pageWidth="850" pageHeight="1100" math="1" shadow="0">
            <root>
                <mxCell id="0"/>
                <mxCell id="1" parent="0"/>
                <mxCell id="2" value="Thuật toán Bessel" style="text;html=1;strokeColor=none;fillColor=none;align=center;verticalAlign=middle;whiteSpace=wrap;rounded=0;fontSize=18;" vertex="1" parent="1">
                    <mxGeometry x="323" y="10" width="205" height="30" as="geometry"/>
                </mxCell>
                <mxCell id="3" value="$$y\approx\frac{y_0+y_1}{2}+\Delta y_0u+\ldots&lt;br&gt;+S_{2k}+S_{2k+1}\\&lt;br&gt;S_{2k}=\frac{1}{2}\times\left[\frac{\Delta^{2k}y_{-k}}{(2k)!}+\frac{\Delta^{2k}y_{-k+1}}{(2k)!}\right]\times\left[u^2-\left(\frac{1}{2}\right)^2\right]\times\ldots\times\left[u^2-\left(\frac{2k-1}{2}\right)^2\right]&lt;br&gt;\\&lt;br&gt;S_{2k+1}=\frac{\Delta^{2k+1}y_{-k}}{(2k+1)!}\times\left[u^2-\left(\frac{1}{2}\right)^2\right]\times\ldots\times\left[u^2-\left(\frac{2k-1}{2}\right)^2\right]\times u&lt;br&gt;$$" style="shape=note;whiteSpace=wrap;html=1;backgroundOutline=1;darkOpacity=0.05;fontSize=12;" vertex="1" parent="1">
                    <mxGeometry x="90" y="80" width="570" height="200" as="geometry"/>
                </mxCell>
                <mxCell id="8" value="" style="edgeStyle=none;html=1;fontSize=12;" edge="1" parent="1" source="6" target="7">
                    <mxGeometry relative="1" as="geometry"/>
                </mxCell>
                <mxCell id="6" value="begin" style="ellipse;whiteSpace=wrap;html=1;fontSize=12;" vertex="1" parent="1">
                    <mxGeometry x="81" y="350" width="120" height="80" as="geometry"/>
                </mxCell>
                <mxCell id="35" value="" style="edgeStyle=none;html=1;fontSize=12;" edge="1" parent="1" source="7" target="34">
                    <mxGeometry relative="1" as="geometry"/>
                </mxCell>
                <mxCell id="7" value="$$x_i,y_i,i=\overline{0,n}$$" style="shape=parallelogram;perimeter=parallelogramPerimeter;whiteSpace=wrap;html=1;fixedSize=1;" vertex="1" parent="1">
                    <mxGeometry x="67.5" y="480" width="147" height="60" as="geometry"/>
                </mxCell>
                <mxCell id="9" value="$$t=\frac{x-x_0}{h}\\&lt;br&gt;u=t-\frac{1}{2}$$" style="whiteSpace=wrap;html=1;aspect=fixed;fontSize=12;" vertex="1" parent="1">
                    <mxGeometry x="690" y="125" width="110" height="110" as="geometry"/>
                </mxCell>
                <mxCell id="10" value="end" style="ellipse;whiteSpace=wrap;html=1;fontSize=12;" vertex="1" parent="1">
                    <mxGeometry x="652" y="1300" width="120" height="80" as="geometry"/>
                </mxCell>
                <mxCell id="11" value="" style="edgeStyle=none;html=1;fontSize=12;" edge="1" parent="1" source="15" target="19">
                    <mxGeometry relative="1" as="geometry"/>
                </mxCell>
                <mxCell id="12" value="yes" style="edgeLabel;html=1;align=center;verticalAlign=middle;resizable=0;points=[];fontSize=12;" vertex="1" connectable="0" parent="11">
                    <mxGeometry x="-0.4671" y="1" relative="1" as="geometry">
                        <mxPoint as="offset"/>
                    </mxGeometry>
                </mxCell>
                <mxCell id="13" value="" style="edgeStyle=none;html=1;fontSize=12;" edge="1" parent="1" source="15" target="23">
                    <mxGeometry relative="1" as="geometry"/>
                </mxCell>
                <mxCell id="14" value="no" style="edgeLabel;html=1;align=center;verticalAlign=middle;resizable=0;points=[];fontSize=12;" vertex="1" connectable="0" parent="13">
                    <mxGeometry x="-0.5306" y="-1" relative="1" as="geometry">
                        <mxPoint as="offset"/>
                    </mxGeometry>
                </mxCell>
                <mxCell id="15" value="k &amp;lt; count_even" style="rhombus;whiteSpace=wrap;html=1;fontSize=12;" vertex="1" parent="1">
                    <mxGeometry x="56" y="935" width="170" height="80" as="geometry"/>
                </mxCell>
                <mxCell id="16" style="edgeStyle=none;html=1;fontSize=12;" edge="1" parent="1" source="17" target="15">
                    <mxGeometry relative="1" as="geometry"/>
                </mxCell>
                <mxCell id="17" value="count_even = middle + 1&lt;br&gt;k = 1" style="whiteSpace=wrap;html=1;rounded=0;" vertex="1" parent="1">
                    <mxGeometry x="28.5" y="815" width="225" height="70" as="geometry"/>
                </mxCell>
                <mxCell id="18" value="" style="edgeStyle=none;html=1;fontSize=12;" edge="1" parent="1" source="19" target="21">
                    <mxGeometry relative="1" as="geometry"/>
                </mxCell>
                <mxCell id="19" value="s_even = bessel_even(k)&lt;br&gt;p = p + s_even" style="whiteSpace=wrap;html=1;" vertex="1" parent="1">
                    <mxGeometry x="63.5" y="1075" width="155" height="60" as="geometry"/>
                </mxCell>
                <mxCell id="20" style="edgeStyle=none;html=1;exitX=0;exitY=0.5;exitDx=0;exitDy=0;entryX=0;entryY=0.5;entryDx=0;entryDy=0;fontSize=12;" edge="1" parent="1" source="21" target="15">
                    <mxGeometry relative="1" as="geometry">
                        <Array as="points">
                            <mxPoint x="7" y="1215"/>
                            <mxPoint x="7" y="975"/>
                        </Array>
                    </mxGeometry>
                </mxCell>
                <mxCell id="21" value="$$k=k+1$$" style="whiteSpace=wrap;html=1;" vertex="1" parent="1">
                    <mxGeometry x="81" y="1185" width="120" height="60" as="geometry"/>
                </mxCell>
                <mxCell id="22" style="edgeStyle=none;html=1;exitX=0.5;exitY=1;exitDx=0;exitDy=0;fontSize=12;" edge="1" parent="1" source="23" target="27">
                    <mxGeometry relative="1" as="geometry"/>
                </mxCell>
                <mxCell id="23" value="&lt;span&gt;count_odd = count_even - 1&lt;/span&gt;&lt;br&gt;&lt;span&gt;k = 1&lt;/span&gt;" style="whiteSpace=wrap;html=1;" vertex="1" parent="1">
                    <mxGeometry x="317" y="945" width="172.5" height="60" as="geometry"/>
                </mxCell>
                <mxCell id="24" value="" style="edgeStyle=none;html=1;fontSize=12;" edge="1" parent="1" source="27" target="29">
                    <mxGeometry relative="1" as="geometry"/>
                </mxCell>
                <mxCell id="25" value="yes" style="edgeLabel;html=1;align=center;verticalAlign=middle;resizable=0;points=[];fontSize=12;" vertex="1" connectable="0" parent="24">
                    <mxGeometry x="-0.4671" y="1" relative="1" as="geometry">
                        <mxPoint as="offset"/>
                    </mxGeometry>
                </mxCell>
                <mxCell id="26" value="" style="edgeStyle=none;html=1;fontSize=12;" edge="1" parent="1" source="27" target="33">
                    <mxGeometry relative="1" as="geometry"/>
                </mxCell>
                <mxCell id="27" value="k &amp;lt; count_odd" style="rhombus;whiteSpace=wrap;html=1;fontSize=12;" vertex="1" parent="1">
                    <mxGeometry x="319.5" y="1060" width="170" height="80" as="geometry"/>
                </mxCell>
                <mxCell id="28" value="" style="edgeStyle=none;html=1;fontSize=12;" edge="1" parent="1" source="29" target="31">
                    <mxGeometry relative="1" as="geometry"/>
                </mxCell>
                <mxCell id="29" value="s_odd = bessel_odd(k)&lt;br&gt;p = p + s_odd" style="whiteSpace=wrap;html=1;" vertex="1" parent="1">
                    <mxGeometry x="327" y="1200" width="155" height="60" as="geometry"/>
                </mxCell>
                <mxCell id="30" style="edgeStyle=none;html=1;exitX=0;exitY=0.5;exitDx=0;exitDy=0;entryX=0;entryY=0.5;entryDx=0;entryDy=0;fontSize=12;" edge="1" parent="1" source="31" target="27">
                    <mxGeometry relative="1" as="geometry">
                        <Array as="points">
                            <mxPoint x="267" y="1340"/>
                            <mxPoint x="267" y="1100"/>
                        </Array>
                    </mxGeometry>
                </mxCell>
                <mxCell id="31" value="$$k=k+1$$" style="whiteSpace=wrap;html=1;" vertex="1" parent="1">
                    <mxGeometry x="344.5" y="1310" width="120" height="60" as="geometry"/>
                </mxCell>
                <mxCell id="32" style="edgeStyle=none;html=1;exitX=0.5;exitY=1;exitDx=0;exitDy=0;fontSize=12;" edge="1" parent="1" source="33" target="10">
                    <mxGeometry relative="1" as="geometry"/>
                </mxCell>
                <mxCell id="33" value="mảng p - các hệ số của hàm xấp xỉ cần tìm" style="shape=parallelogram;perimeter=parallelogramPerimeter;whiteSpace=wrap;html=1;fixedSize=1;" vertex="1" parent="1">
                    <mxGeometry x="577" y="1070" width="270" height="65" as="geometry"/>
                </mxCell>
                <mxCell id="37" value="" style="edgeStyle=none;html=1;fontSize=12;" edge="1" parent="1" source="34" target="36">
                    <mxGeometry relative="1" as="geometry"/>
                </mxCell>
                <mxCell id="34" value="$$middle=\frac{n}{2}-1$$" style="whiteSpace=wrap;html=1;" vertex="1" parent="1">
                    <mxGeometry x="81" y="590" width="120" height="60" as="geometry"/>
                </mxCell>
                <mxCell id="38" style="edgeStyle=none;html=1;exitX=0.5;exitY=1;exitDx=0;exitDy=0;entryX=0.5;entryY=0;entryDx=0;entryDy=0;fontSize=12;" edge="1" parent="1" source="36" target="17">
                    <mxGeometry relative="1" as="geometry"/>
                </mxCell>
                <mxCell id="36" value="$$p=\left[\Delta y_0,\frac{y_0+y_1}{2}\right]$$" style="whiteSpace=wrap;html=1;" vertex="1" parent="1">
                    <mxGeometry x="57.5" y="700" width="167" height="60" as="geometry"/>
                </mxCell>
            </root>
        </mxGraphModel>
    </diagram>
</mxfile>